<svg width="63" height="68" viewBox="0 0 63 68" fill="none" xmlns="http://www.w3.org/2000/svg">
<path d="M23.6697 2.60324C28.5151 -0.194244 34.4849 -0.194244 39.3303 2.60324L54.6644 11.4567C59.5097 14.2542 62.4946 19.4238 62.4947 25.0187V42.7257C62.4946 48.3206 59.5097 53.4902 54.6644 56.2877L39.3303 65.1412C34.6364 67.8512 28.8874 67.9354 24.1275 65.3947L23.6697 65.1412L8.33565 56.2877C3.49032 53.4902 0.505443 48.3206 0.505336 42.7257V25.0187C0.505444 19.4238 3.49032 14.2542 8.33565 11.4567L23.6697 2.60324Z" fill="url(#paint0_linear_597_202)"/>
<path d="M23.6697 2.60324C28.5151 -0.194244 34.4849 -0.194244 39.3303 2.60324L54.6644 11.4567C59.5097 14.2542 62.4946 19.4238 62.4947 25.0187V42.7257C62.4946 48.3206 59.5097 53.4902 54.6644 56.2877L39.3303 65.1412C34.6364 67.8512 28.8874 67.9354 24.1275 65.3947L23.6697 65.1412L8.33565 56.2877C3.49032 53.4902 0.505443 48.3206 0.505336 42.7257V25.0187C0.505444 19.4238 3.49032 14.2542 8.33565 11.4567L23.6697 2.60324Z" stroke="white" style="mix-blend-mode:overlay"/>
<defs>
<linearGradient id="paint0_linear_597_202" x1="27.9637" y1="35.8929" x2="7.75647" y2="58.1209" gradientUnits="userSpaceOnUse">
<stop stop-color="#C441F4"/>
<stop offset="1" stop-color="#00DAEA"/>
</linearGradient>
</defs>
</svg>
