<svg width="8" height="37" viewBox="0 0 8 37" fill="none" xmlns="http://www.w3.org/2000/svg">
<mask id="path-1-inside-1_597_204" fill="white">
<path fill-rule="evenodd" clip-rule="evenodd" d="M3.30218 0C1.1946 2.75005 0 6.15798 0 9.73599V27.264C0 30.842 1.1946 34.2499 3.30218 37C3.42048 35.9455 3.62263 34.9008 3.90727 33.8761L6.69123 23.8539C7.66427 20.3509 7.66427 16.6491 6.69123 13.1461L3.90728 3.12388C3.62263 2.09917 3.42048 1.05454 3.30218 0Z"/>
</mask>
<path fill-rule="evenodd" clip-rule="evenodd" d="M3.30218 0C1.1946 2.75005 0 6.15798 0 9.73599V27.264C0 30.842 1.1946 34.2499 3.30218 37C3.42048 35.9455 3.62263 34.9008 3.90727 33.8761L6.69123 23.8539C7.66427 20.3509 7.66427 16.6491 6.69123 13.1461L3.90728 3.12388C3.62263 2.09917 3.42048 1.05454 3.30218 0Z" fill="url(#paint0_linear_597_204)"/>
<path d="M3.30218 0L4.29613 -0.111499L4.01923 -2.57989L2.50832 -0.6084L3.30218 0ZM3.30218 37L2.50832 37.6084L4.01923 39.5799L4.29613 37.1115L3.30218 37ZM3.90727 33.8761L4.87097 34.1438L3.90727 33.8761ZM6.69123 23.8539L5.72754 23.5862H5.72754L6.69123 23.8539ZM6.69123 13.1461L5.72754 13.4138H5.72754L6.69123 13.1461ZM3.90728 3.12388L2.94358 3.39158L3.90728 3.12388ZM1.00018 9.73599C1.00018 6.38171 2.11996 3.18687 4.09605 0.6084L2.50832 -0.6084C0.269243 2.31323 -1.00018 5.93424 -1.00018 9.73599H1.00018ZM1.00018 27.264V9.73599H-1.00018V27.264H1.00018ZM4.09605 36.3916C2.11996 33.8131 1.00018 30.6183 1.00018 27.264H-1.00018C-1.00018 31.0658 0.269241 34.6868 2.50832 37.6084L4.09605 36.3916ZM4.29613 37.1115C4.40852 36.1097 4.60056 35.1173 4.87097 34.1438L2.94358 33.6084C2.6447 34.6844 2.43245 35.7812 2.30824 36.8885L4.29613 37.1115ZM4.87097 34.1438L7.65493 24.1216L5.72754 23.5862L2.94358 33.6084L4.87097 34.1438ZM7.65493 24.1216C8.67662 20.4435 8.67662 16.5565 7.65493 12.8784L5.72754 13.4138C6.65192 16.7416 6.65192 20.2584 5.72754 23.5862L7.65493 24.1216ZM7.65493 12.8784L4.87097 2.85619L2.94358 3.39158L5.72754 13.4138L7.65493 12.8784ZM4.87097 2.85619C4.60056 1.88271 4.40852 0.890313 4.29613 -0.111499L2.30824 0.111499C2.43245 1.21876 2.64471 2.31563 2.94358 3.39158L4.87097 2.85619Z" fill="white" fill-opacity="0.4" style="mix-blend-mode:overlay" mask="url(#path-1-inside-1_597_204)"/>
<defs>
<linearGradient id="paint0_linear_597_204" x1="27.682" y1="20.5004" x2="7.67832" y2="42.5044" gradientUnits="userSpaceOnUse">
<stop stop-color="#C441F4"/>
<stop offset="1" stop-color="#00DAEA"/>
</linearGradient>
</defs>
</svg>
