<svg width="19" height="19" viewBox="0 0 19 19" fill="none" xmlns="http://www.w3.org/2000/svg">
<path d="M0 9.49447C0 10.424 0.752475 11.1765 1.682 11.1765H7.82353V17.318C7.82353 18.2365 8.56494 19 9.49447 19C10.424 19 11.1765 18.2365 11.1765 17.318V11.1765H17.318C18.2365 11.1765 18.9889 10.424 18.9889 9.49447C18.9889 8.576 18.2365 7.82353 17.318 7.82353H11.1765V1.682C11.1765 0.763541 10.424 0 9.49447 0C8.56494 0 7.82353 0.763541 7.82353 1.682V7.82353H1.682C0.752475 7.82353 0 8.576 0 9.49447Z" fill="white" style="mix-blend-mode:overlay"/>
</svg>
